<?xml version="1.0" encoding="UTF-8"?>
<svg id="Layer_1" data-name="Layer 1" xmlns="http://www.w3.org/2000/svg" xmlns:xlink="http://www.w3.org/1999/xlink" viewBox="0 0 320 320">
  <defs>
    <style>
      .cls-1 {
        fill: url(#linear-gradient);
      }

      .cls-1, .cls-2, .cls-3, .cls-4, .cls-5, .cls-6 {
        stroke-width: 0px;
      }

      .cls-2 {
        fill: url(#linear-gradient-6);
      }

      .cls-3 {
        fill: url(#linear-gradient-5);
      }

      .cls-4 {
        fill: url(#linear-gradient-2);
      }

      .cls-5 {
        fill: url(#linear-gradient-3);
      }

      .cls-6 {
        fill: url(#linear-gradient-4);
      }
    </style>
    <linearGradient id="linear-gradient" x1="142.22" y1="159.94" x2="190.82" y2="159.94" gradientUnits="userSpaceOnUse">
      <stop offset="0" stop-color="#3766fc"/>
      <stop offset="1" stop-color="#06f59e"/>
    </linearGradient>
    <linearGradient id="linear-gradient-2" x1="72.75" y1="159.43" x2="187.72" y2="159.43" xlink:href="#linear-gradient"/>
    <linearGradient id="linear-gradient-3" x1="183.92" y1="211.55" x2="211.33" y2="211.55" xlink:href="#linear-gradient"/>
    <linearGradient id="linear-gradient-4" x1="154.32" y1="217.56" x2="181.73" y2="217.56" xlink:href="#linear-gradient"/>
    <linearGradient id="linear-gradient-5" x1="213.52" y1="217.56" x2="240.93" y2="217.56" xlink:href="#linear-gradient"/>
    <linearGradient id="linear-gradient-6" x1="151.55" y1="110.19" x2="240.93" y2="110.19" xlink:href="#linear-gradient"/>
  </defs>
  <path class="cls-1" d="M190.82,159.94c0,4.54-4.35,8.22-9.72,8.22h-29.16c-5.37,0-9.72-3.68-9.72-8.22s4.35-8.22,9.72-8.22h29.16c5.37,0,9.72,3.68,9.72,8.22Z"/>
  <path class="cls-4" d="M187.72,77.51l-32.89,32.82h-.41c-26.92.22-48.7,21.95-48.92,48.83,0,.14,0,.27,0,.41,0,3.12.29,6.18.86,9.14,1.94,10.38,7.16,19.61,14.54,26.59.93.88,1.89,1.72,2.88,2.53,4.4,3.57,9.43,6.39,14.9,8.28,4.69,1.64,8.28,5.97,9.27,11.33.04.24.08.48.12.72.02.16.04.32.05.48.07.6.1,1.2.1,1.81v18.05c0,.97-.08,1.93-.25,2.85-.34-.03-.69-.06-1.02-.09-.26-.03-.53-.05-.79-.08-.6-.06-1.19-.13-1.79-.21-.35-.04-.69-.09-1.03-.14-.32-.04-.64-.09-.96-.14-1.12-.17-2.24-.37-3.35-.58-.26-.05-.51-.1-.76-.15-4.68-.96-9.22-2.31-13.58-4.03-.38-.15-.76-.3-1.14-.46-.02-.01-.05-.02-.07-.03-.53-.22-1.04-.44-1.56-.66-.02-.01-.04-.02-.06-.03-.35-.15-.7-.31-1.04-.47-.21-.09-.42-.19-.63-.28-.03-.01-.06-.03-.09-.04-.47-.22-.94-.45-1.41-.68-.13-.06-.26-.13-.38-.19-.47-.24-.94-.47-1.4-.71-.54-.28-1.08-.57-1.61-.86-.46-.25-.92-.51-1.38-.77-.15-.08-.3-.16-.44-.25-.43-.25-.85-.5-1.27-.75-.03-.02-.06-.03-.09-.05-.52-.31-1.03-.63-1.53-.95-.51-.33-1.02-.66-1.52-1-.07-.04-.13-.09-.2-.13-.38-.26-.75-.51-1.12-.78-.17-.11-.34-.23-.5-.35-.38-.27-.77-.55-1.15-.83-.49-.36-.98-.72-1.45-1.09-.45-.34-.89-.69-1.34-1.05-.04-.02-.07-.05-.1-.08-.47-.37-.93-.75-1.39-1.14-.78-.66-1.56-1.34-2.34-2.04-.71-.63-1.41-1.29-2.08-1.96l-.03-.03c-.46-.45-.92-.9-1.36-1.36-.04-.04-.08-.08-.12-.12-.47-.48-.94-.97-1.4-1.47-.04-.04-.09-.09-.13-.14-.44-.48-.89-.97-1.32-1.47-.42-.47-.82-.94-1.22-1.42-.42-.5-.84-1-1.24-1.51-.14-.17-.27-.34-.4-.51-.01,0-.02-.02-.02-.03-.37-.47-.73-.94-1.1-1.42-.42-.55-.83-1.11-1.23-1.67-.02-.02-.03-.04-.04-.06-.38-.54-.76-1.08-1.13-1.62,0,0-.01-.01-.01-.02-.39-.57-.77-1.15-1.15-1.73-.33-.52-.66-1.04-.98-1.57-.35-.56-.68-1.13-1.01-1.71-.15-.25-.29-.5-.43-.76-.26-.45-.5-.9-.75-1.36-.16-.31-.33-.61-.49-.92-.32-.61-.64-1.24-.94-1.87-.15-.31-.31-.62-.45-.94-.14-.3-.28-.6-.42-.9-.14-.3-.27-.6-.4-.89-.54-1.21-1.06-2.45-1.53-3.69-.24-.62-.47-1.24-.7-1.87-.16-.45-.32-.9-.47-1.35-.15-.45-.3-.91-.45-1.37-.13-.39-.25-.79-.37-1.19-.3-.98-.58-1.97-.83-2.97-.11-.42-.21-.84-.32-1.25-.13-.52-.25-1.04-.37-1.57-.08-.33-.15-.67-.22-1.01-.14-.65-.27-1.31-.39-1.97-.08-.44-.16-.88-.23-1.32-.07-.39-.13-.77-.19-1.16-.17-1.11-.32-2.23-.44-3.35-.05-.44-.09-.89-.14-1.33-.04-.44-.08-.89-.12-1.33,0-.09-.01-.18-.02-.26-.04-.45-.07-.9-.09-1.36v-9.73s0-.05,0-.07c.03-.46.05-.91.09-1.37,0-.04,0-.08.01-.12.04-.52.08-1.03.13-1.55.04-.43.09-.87.14-1.3.04-.39.09-.78.14-1.16.04-.32.08-.64.13-.96.05-.39.11-.79.18-1.18.08-.51.16-1.01.25-1.52.08-.48.17-.96.26-1.43,0-.03.01-.05.02-.08.1-.5.2-1,.31-1.5.1-.48.2-.95.31-1.42,0-.02.01-.04.02-.07.11-.47.22-.94.34-1.4,0-.04.02-.08.03-.13.09-.37.19-.73.29-1.09.07-.24.13-.48.2-.72.08-.3.16-.59.25-.88.18-.61.36-1.22.55-1.82.13-.41.26-.83.4-1.24.15-.46.31-.92.47-1.38.18-.5.36-1.01.55-1.5.13-.36.27-.71.41-1.06.4-1.03.82-2.04,1.26-3.05.18-.42.37-.83.56-1.24.22-.5.45-.99.69-1.48.21-.44.43-.88.65-1.31.18-.37.37-.73.56-1.09.19-.38.39-.75.6-1.13.15-.29.32-.58.48-.86.27-.49.55-.97.83-1.44.57-.97,1.16-1.93,1.77-2.88.16-.25.33-.5.49-.75.36-.55.73-1.09,1.11-1.64.19-.27.38-.54.57-.81.45-.65.93-1.29,1.4-1.91.32-.42.64-.84.96-1.24.2-.26.41-.52.61-.77.2-.26.41-.51.62-.77.42-.51.84-1.01,1.27-1.5.03-.04.07-.07.09-.11.41-.46.81-.91,1.22-1.36.21-.24.43-.46.64-.69.5-.54,1.01-1.07,1.52-1.59.19-.19.38-.38.56-.57.47-.47.94-.92,1.41-1.37.22-.21.44-.41.65-.62,1-.93,2.02-1.83,3.06-2.71.24-.2.47-.4.71-.6.73-.61,1.49-1.2,2.24-1.78.81-.62,1.63-1.23,2.46-1.82.27-.19.54-.38.81-.57.59-.41,1.19-.82,1.8-1.21.5-.33,1-.65,1.51-.96,1.72-1.07,3.48-2.08,5.28-3.03.34-.18.67-.35,1.01-.53.34-.17.69-.34,1.03-.51.33-.16.66-.32.99-.48.36-.17.72-.34,1.09-.5.35-.16.7-.31,1.05-.46.35-.15.69-.3,1.04-.45,0,0,.01,0,.02,0,.36-.15.71-.3,1.06-.44.36-.15.71-.29,1.07-.43,2.51-.98,5.07-1.83,7.69-2.56.37-.11.75-.21,1.12-.31.38-.1.76-.19,1.13-.29.38-.09.76-.18,1.13-.27,5.32-1.24,10.85-1.96,16.52-2.11.09,0,.18-.01.27-.01.35-.01.71-.02,1.06-.02.31,0,.61,0,.92,0h32.89Z"/>
  <path class="cls-5" d="M183.92,196.5v45.13s13.7,0,13.7,0c5.66,0,10.51-3.76,12.61-9.13.71-1.82,1.1-3.81,1.1-5.91v-30.19c-.05-8.23-6.12-14.89-13.62-14.95h-.09c-7.57,0-13.7,6.73-13.7,15.04Z"/>
  <path class="cls-6" d="M154.32,208.54v33.1s13.7,0,13.7,0c7.57,0,13.7-6.73,13.7-15.04v-18.05c0-.61-.03-1.21-.1-1.81-.01-.16-.03-.32-.05-.48-.03-.24-.07-.48-.12-.72-1.27-6.87-6.8-12.04-13.43-12.04-7.57,0-13.7,6.73-13.7,15.04Z"/>
  <path class="cls-3" d="M213.52,208.54v33.1s13.7,0,13.7,0c7.57,0,13.7-6.73,13.7-15.04v-18.05c0-.61-.03-1.21-.1-1.81-.01-.16-.03-.32-.05-.48-.03-.24-.07-.48-.12-.72-1.27-6.87-6.8-12.04-13.43-12.04-7.57,0-13.7,6.73-13.7,15.04Z"/>
  <path class="cls-2" d="M240.93,93.93c0,9.06-7.36,16.41-16.44,16.41h-17.16l-28.6,28.54c-6.47,5.58-16.26,5.29-22.38-.85-6.41-6.42-6.39-16.81.04-23.21l37.51-37.31h30.58c9.08,0,16.44,7.35,16.44,16.41Z"/>
</svg>