<?xml version="1.0" encoding="UTF-8" standalone="no"?>
<svg
   id="Layer_1"
   data-name="Layer 1"
   viewBox="0 0 564917.31 21362.002"
   version="1.1"
   sodipodi:docname="Transparent.svg"
   width="564917.31"
   height="21362.002"
   xmlns:inkscape="http://www.inkscape.org/namespaces/inkscape"
   xmlns:sodipodi="http://sodipodi.sourceforge.net/DTD/sodipodi-0.dtd"
   xmlns:xlink="http://www.w3.org/1999/xlink"
   xmlns="http://www.w3.org/2000/svg"
   xmlns:svg="http://www.w3.org/2000/svg">
  <sodipodi:namedview
     id="namedview8"
     pagecolor="#505050"
     bordercolor="#ffffff"
     borderopacity="1"
     inkscape:showpageshadow="0"
     inkscape:pageopacity="0"
     inkscape:pagecheckerboard="1"
     inkscape:deskcolor="#505050">
    <inkscape:page
       x="0"
       y="0"
       width="564917.31"
       height="21362.002"
       id="page2"
       margin="0"
       bleed="0" />
  </sodipodi:namedview>
  <defs
     id="defs2">
    <style
       id="style1">
      .cls-1 {
        fill: url(#linear-gradient);
      }

      .cls-1, .cls-2, .cls-3, .cls-4, .cls-5, .cls-6 {
        stroke-width: 0px;
      }

      .cls-7 {
        letter-spacing: -.01em;
      }

      .cls-2 {
        fill: url(#linear-gradient-6);
      }

      .cls-3 {
        fill: url(#linear-gradient-5);
      }

      .cls-4 {
        fill: url(#linear-gradient-2);
      }

      .cls-5 {
        fill: url(#linear-gradient-3);
      }

      .cls-8 {
        fill: #040612;
        font-family: Nexa-XBold, Nexa-XBold;
        font-size: 78.4px;
        font-weight: 700;
      }

      .cls-6 {
        fill: url(#linear-gradient-4);
      }
    </style>
    <linearGradient
       id="linear-gradient"
       x1="301.60001"
       y1="108.77"
       x2="330.35001"
       y2="108.77"
       gradientUnits="userSpaceOnUse">
      <stop
         offset="0"
         stop-color="#3766fc"
         id="stop1" />
      <stop
         offset="1"
         stop-color="#06f59e"
         id="stop2" />
    </linearGradient>
    <linearGradient
       id="linear-gradient-2"
       x1="260.48999"
       y1="108.47"
       x2="328.51999"
       y2="108.47"
       xlink:href="#linear-gradient" />
    <linearGradient
       id="linear-gradient-3"
       x1="326.26999"
       y1="139.3"
       x2="342.48999"
       y2="139.3"
       xlink:href="#linear-gradient" />
    <linearGradient
       id="linear-gradient-4"
       x1="308.76001"
       y1="142.86"
       x2="324.97"
       y2="142.86"
       xlink:href="#linear-gradient" />
    <linearGradient
       id="linear-gradient-5"
       x1="343.78"
       y1="142.86"
       x2="360"
       y2="142.86"
       xlink:href="#linear-gradient" />
    <linearGradient
       id="linear-gradient-6"
       x1="307.12"
       y1="79.330002"
       x2="360"
       y2="79.330002"
       xlink:href="#linear-gradient" />
    <linearGradient
       inkscape:collect="always"
       xlink:href="#linear-gradient"
       id="linearGradient2"
       gradientUnits="userSpaceOnUse"
       x1="301.60001"
       y1="108.77"
       x2="330.35001"
       y2="108.77" />
  </defs>
  <text
     class="cls-8"
     transform="scale(1.0148892,0.98532926)"
     id="text3"
     x="-261426.36"
     y="-13257.862"
     style="stroke-width:1.01489"><tspan
       class="cls-7"
       x="-261426.36"
       y="-13257.862"
       id="tspan2"
       style="stroke-width:1.01489">C</tspan><tspan
       x="-261371.7"
       y="-13257.862"
       id="tspan3"
       style="stroke-width:1.01489">elmouse</tspan></text>
  <g
     id="g8"
     transform="translate(-265699.78,-13200)">
    <path
       class="cls-1"
       d="m 330.35,108.77 c 0,2.69 -2.57,4.86 -5.75,4.86 h -17.25 c -3.18,0 -5.75,-2.18 -5.75,-4.86 0,-2.68 2.57,-4.86 5.75,-4.86 h 17.25 c 3.18,0 5.75,2.18 5.75,4.86 z"
       id="path3"
       style="fill:url(#linearGradient2)" />
    <path
       class="cls-4"
       d="m 328.52,60 -19.46,19.42 h -0.24 c -15.93,0.13 -28.81,12.99 -28.94,28.89 0,0.08 0,0.16 0,0.24 0,1.85 0.17,3.65 0.51,5.41 1.15,6.14 4.24,11.6 8.6,15.73 0.55,0.52 1.12,1.02 1.71,1.5 2.6,2.11 5.58,3.78 8.82,4.9 2.77,0.97 4.9,3.53 5.48,6.7 0.03,0.14 0.05,0.28 0.07,0.42 0.01,0.1 0.03,0.19 0.03,0.28 0.04,0.35 0.06,0.71 0.06,1.07 v 10.68 c 0,0.58 -0.05,1.14 -0.15,1.69 -0.2,-0.02 -0.41,-0.04 -0.6,-0.05 -0.16,-0.02 -0.31,-0.03 -0.47,-0.05 -0.35,-0.04 -0.71,-0.08 -1.06,-0.12 -0.2,-0.02 -0.41,-0.05 -0.61,-0.08 -0.19,-0.03 -0.38,-0.05 -0.57,-0.08 -0.66,-0.1 -1.33,-0.22 -1.98,-0.34 -0.15,-0.03 -0.3,-0.06 -0.45,-0.09 -2.77,-0.57 -5.46,-1.37 -8.03,-2.38 -0.23,-0.09 -0.45,-0.18 -0.67,-0.27 -0.01,0 -0.03,-0.01 -0.04,-0.02 -0.31,-0.13 -0.62,-0.26 -0.92,-0.39 -0.01,0 -0.03,0 -0.04,-0.02 -0.21,-0.09 -0.41,-0.18 -0.62,-0.28 -0.13,-0.06 -0.25,-0.11 -0.37,-0.17 -0.02,0 -0.04,-0.02 -0.05,-0.02 -0.28,-0.13 -0.56,-0.27 -0.84,-0.4 -0.08,-0.04 -0.15,-0.07 -0.23,-0.11 -0.28,-0.14 -0.55,-0.28 -0.83,-0.42 -0.32,-0.17 -0.64,-0.34 -0.95,-0.51 -0.27,-0.15 -0.54,-0.3 -0.81,-0.46 -0.09,-0.05 -0.18,-0.1 -0.26,-0.15 -0.25,-0.15 -0.5,-0.3 -0.75,-0.45 -0.02,0 -0.04,-0.02 -0.05,-0.03 -0.3,-0.18 -0.61,-0.37 -0.9,-0.56 -0.3,-0.19 -0.6,-0.39 -0.9,-0.59 -0.04,-0.03 -0.08,-0.05 -0.12,-0.08 -0.22,-0.15 -0.44,-0.3 -0.66,-0.46 -0.1,-0.06 -0.2,-0.14 -0.3,-0.21 -0.23,-0.16 -0.45,-0.33 -0.68,-0.49 -0.29,-0.21 -0.58,-0.43 -0.86,-0.65 -0.27,-0.2 -0.53,-0.41 -0.79,-0.62 -0.02,-0.01 -0.04,-0.03 -0.06,-0.05 -0.28,-0.22 -0.55,-0.45 -0.82,-0.68 -0.46,-0.39 -0.92,-0.79 -1.38,-1.2 -0.42,-0.38 -0.83,-0.76 -1.23,-1.16 l -0.02,-0.02 c -0.27,-0.27 -0.54,-0.53 -0.81,-0.81 -0.02,-0.02 -0.05,-0.05 -0.07,-0.07 -0.28,-0.28 -0.55,-0.58 -0.83,-0.87 -0.03,-0.03 -0.05,-0.06 -0.08,-0.08 -0.26,-0.28 -0.53,-0.58 -0.78,-0.87 -0.25,-0.28 -0.49,-0.56 -0.72,-0.84 -0.25,-0.29 -0.5,-0.59 -0.74,-0.89 -0.08,-0.1 -0.16,-0.2 -0.24,-0.3 0,0 0,0 -0.01,-0.02 -0.22,-0.28 -0.43,-0.56 -0.65,-0.84 -0.25,-0.33 -0.49,-0.66 -0.73,-0.99 0,-0.01 -0.02,-0.02 -0.03,-0.04 -0.23,-0.32 -0.45,-0.64 -0.67,-0.96 0,0 0,0 0,-0.01 -0.23,-0.34 -0.46,-0.68 -0.68,-1.03 -0.2,-0.31 -0.39,-0.62 -0.58,-0.93 -0.2,-0.33 -0.4,-0.67 -0.6,-1.01 -0.09,-0.15 -0.17,-0.3 -0.26,-0.45 -0.15,-0.27 -0.3,-0.53 -0.44,-0.8 -0.1,-0.18 -0.19,-0.36 -0.29,-0.55 -0.19,-0.36 -0.38,-0.73 -0.56,-1.1 -0.09,-0.18 -0.18,-0.37 -0.27,-0.56 -0.08,-0.17 -0.17,-0.35 -0.25,-0.53 -0.08,-0.17 -0.16,-0.35 -0.24,-0.53 -0.32,-0.72 -0.63,-1.45 -0.91,-2.18 -0.14,-0.37 -0.28,-0.73 -0.41,-1.11 -0.09,-0.27 -0.19,-0.53 -0.28,-0.8 -0.09,-0.27 -0.18,-0.54 -0.27,-0.81 -0.07,-0.23 -0.15,-0.47 -0.22,-0.7 -0.18,-0.58 -0.34,-1.17 -0.49,-1.75 -0.06,-0.25 -0.13,-0.5 -0.19,-0.74 -0.07,-0.31 -0.15,-0.62 -0.22,-0.93 -0.05,-0.2 -0.09,-0.39 -0.13,-0.6 -0.08,-0.39 -0.16,-0.77 -0.23,-1.17 -0.05,-0.26 -0.09,-0.52 -0.14,-0.78 -0.04,-0.23 -0.07,-0.46 -0.11,-0.69 -0.1,-0.66 -0.19,-1.32 -0.26,-1.98 -0.03,-0.26 -0.06,-0.52 -0.08,-0.79 -0.02,-0.26 -0.05,-0.52 -0.07,-0.79 0,-0.05 0,-0.1 0,-0.16 -0.02,-0.27 -0.04,-0.53 -0.06,-0.8 v -5.76 c 0,0 0,-0.03 0,-0.04 0.02,-0.27 0.03,-0.54 0.06,-0.81 0,-0.02 0,-0.05 0,-0.07 0.02,-0.31 0.05,-0.61 0.08,-0.92 0.03,-0.26 0.05,-0.51 0.08,-0.77 0.03,-0.23 0.06,-0.46 0.08,-0.69 0.02,-0.19 0.05,-0.38 0.07,-0.57 0.03,-0.23 0.06,-0.47 0.1,-0.7 0.05,-0.3 0.09,-0.6 0.15,-0.9 0.05,-0.28 0.1,-0.57 0.15,-0.84 0,-0.02 0,-0.03 0,-0.05 0.06,-0.3 0.12,-0.59 0.18,-0.89 0.06,-0.28 0.12,-0.56 0.18,-0.84 0,-0.01 0,-0.03 0,-0.04 0.06,-0.28 0.13,-0.55 0.2,-0.83 0,-0.03 0,-0.05 0.02,-0.07 0.06,-0.22 0.11,-0.43 0.17,-0.65 0.04,-0.14 0.08,-0.28 0.12,-0.42 0.05,-0.17 0.1,-0.35 0.15,-0.52 0.1,-0.36 0.21,-0.72 0.32,-1.08 0.07,-0.24 0.16,-0.49 0.24,-0.73 0.09,-0.27 0.18,-0.54 0.28,-0.82 0.1,-0.3 0.21,-0.6 0.32,-0.89 0.08,-0.21 0.16,-0.42 0.24,-0.62 0.24,-0.61 0.49,-1.21 0.75,-1.8 0.11,-0.25 0.22,-0.49 0.33,-0.73 0.13,-0.29 0.27,-0.59 0.41,-0.87 0.13,-0.26 0.25,-0.52 0.39,-0.78 0.11,-0.22 0.22,-0.43 0.33,-0.65 0.11,-0.22 0.23,-0.45 0.36,-0.67 0.09,-0.17 0.19,-0.34 0.28,-0.51 0.16,-0.29 0.32,-0.57 0.49,-0.85 0.34,-0.58 0.69,-1.14 1.05,-1.7 0.1,-0.15 0.19,-0.3 0.29,-0.45 0.21,-0.33 0.43,-0.65 0.66,-0.97 0.11,-0.16 0.22,-0.32 0.34,-0.48 0.27,-0.38 0.55,-0.76 0.83,-1.13 0.19,-0.25 0.38,-0.5 0.57,-0.73 0.12,-0.16 0.24,-0.31 0.36,-0.46 0.12,-0.15 0.24,-0.3 0.37,-0.45 0.25,-0.3 0.5,-0.6 0.75,-0.89 0.02,-0.02 0.04,-0.04 0.06,-0.06 0.24,-0.27 0.48,-0.54 0.72,-0.81 0.13,-0.14 0.25,-0.28 0.38,-0.41 0.3,-0.32 0.6,-0.63 0.9,-0.94 0.11,-0.11 0.22,-0.23 0.33,-0.34 0.28,-0.28 0.55,-0.55 0.83,-0.81 0.13,-0.12 0.26,-0.24 0.39,-0.37 0.59,-0.55 1.19,-1.08 1.81,-1.6 0.14,-0.12 0.28,-0.24 0.42,-0.35 0.43,-0.36 0.88,-0.71 1.33,-1.06 0.48,-0.37 0.96,-0.73 1.46,-1.07 0.16,-0.11 0.32,-0.23 0.48,-0.34 0.35,-0.24 0.7,-0.48 1.06,-0.72 0.3,-0.19 0.59,-0.38 0.89,-0.57 1.02,-0.63 2.06,-1.23 3.13,-1.79 0.2,-0.1 0.4,-0.21 0.6,-0.31 0.2,-0.1 0.41,-0.2 0.61,-0.3 0.19,-0.09 0.39,-0.19 0.58,-0.28 0.21,-0.1 0.42,-0.2 0.64,-0.3 0.2,-0.09 0.41,-0.18 0.62,-0.28 0.2,-0.09 0.41,-0.18 0.61,-0.27 0,0 0,0 0,0 0.21,-0.09 0.42,-0.17 0.63,-0.26 0.21,-0.09 0.42,-0.17 0.63,-0.25 1.48,-0.58 3,-1.08 4.55,-1.51 0.22,-0.06 0.44,-0.12 0.66,-0.18 0.22,-0.06 0.45,-0.11 0.67,-0.17 0.22,-0.06 0.45,-0.11 0.67,-0.16 3.15,-0.73 6.42,-1.16 9.78,-1.25 0.05,0 0.11,0 0.16,0 0.21,0 0.42,0 0.63,-0.01 0.18,0 0.36,0 0.54,0 h 19.46 z"
       id="path4"
       style="fill:url(#linear-gradient-2)" />
    <path
       class="cls-5"
       d="m 326.27,130.4 v 26.7 c 0,0 8.11,0 8.11,0 3.35,0 6.22,-2.23 7.46,-5.4 0.42,-1.07 0.65,-2.26 0.65,-3.5 v -17.86 c -0.03,-4.87 -3.62,-8.81 -8.06,-8.84 h -0.05 c -4.48,0 -8.11,3.98 -8.11,8.9 z"
       id="path5"
       style="fill:url(#linear-gradient-3)" />
    <path
       class="cls-6"
       d="m 308.76,137.52 v 19.58 c 0,0 8.11,0 8.11,0 4.48,0 8.11,-3.98 8.11,-8.9 v -10.68 c 0,-0.36 -0.02,-0.72 -0.06,-1.07 0,-0.1 -0.02,-0.19 -0.03,-0.28 -0.02,-0.14 -0.04,-0.28 -0.07,-0.42 -0.75,-4.06 -4.02,-7.12 -7.95,-7.12 -4.48,0 -8.11,3.98 -8.11,8.9 z"
       id="path6"
       style="fill:url(#linear-gradient-4)" />
    <path
       class="cls-3"
       d="m 343.78,137.52 v 19.58 c 0,0 8.11,0 8.11,0 4.48,0 8.11,-3.98 8.11,-8.9 v -10.68 c 0,-0.36 -0.02,-0.72 -0.06,-1.07 0,-0.1 -0.02,-0.19 -0.03,-0.28 -0.02,-0.14 -0.04,-0.28 -0.07,-0.42 -0.75,-4.06 -4.02,-7.12 -7.95,-7.12 -4.48,0 -8.11,3.98 -8.11,8.9 z"
       id="path7"
       style="fill:url(#linear-gradient-5)" />
    <path
       class="cls-2"
       d="m 360,69.71 c 0,5.36 -4.36,9.71 -9.73,9.71 H 340.12 L 323.2,96.31 c -3.83,3.3 -9.62,3.13 -13.24,-0.5 -3.79,-3.8 -3.78,-9.95 0.03,-13.73 L 332.19,60 h 18.09 c 5.37,0 9.73,4.35 9.73,9.71 z"
       id="path8"
       style="fill:url(#linear-gradient-6)" />
  </g>
</svg>
