<?xml version="1.0" encoding="UTF-8"?>
<svg id="Layer_1" data-name="Layer 1" xmlns="http://www.w3.org/2000/svg" xmlns:xlink="http://www.w3.org/1999/xlink" viewBox="0 0 1020 220">
  <defs>
    <style>
      .cls-1 {
        fill: url(#linear-gradient);
      }

      .cls-1, .cls-2, .cls-3, .cls-4, .cls-5, .cls-6, .cls-7 {
        stroke-width: 0px;
      }

      .cls-8 {
        letter-spacing: -.01em;
      }

      .cls-2 {
        fill: url(#linear-gradient-6);
      }

      .cls-3 {
        fill: url(#linear-gradient-5);
      }

      .cls-4 {
        fill: url(#linear-gradient-2);
      }

      .cls-5 {
        fill: url(#linear-gradient-3);
      }

      .cls-9 {
        fill: #040612;
        font-family: Nexa-XBold, Nexa-XBold;
        font-size: 78.4px;
        font-weight: 700;
      }

      .cls-6 {
        fill: #f6f7fb;
      }

      .cls-7 {
        fill: url(#linear-gradient-4);
      }
    </style>
    <linearGradient id="linear-gradient" x1="301.6" y1="108.77" x2="330.35" y2="108.77" gradientUnits="userSpaceOnUse">
      <stop offset="0" stop-color="#3766fc"/>
      <stop offset="1" stop-color="#06f59e"/>
    </linearGradient>
    <linearGradient id="linear-gradient-2" x1="260.49" y1="108.47" x2="328.52" y2="108.47" xlink:href="#linear-gradient"/>
    <linearGradient id="linear-gradient-3" x1="326.27" y1="139.3" x2="342.49" y2="139.3" xlink:href="#linear-gradient"/>
    <linearGradient id="linear-gradient-4" x1="308.76" y1="142.86" x2="324.97" y2="142.86" xlink:href="#linear-gradient"/>
    <linearGradient id="linear-gradient-5" x1="343.78" y1="142.86" x2="360" y2="142.86" xlink:href="#linear-gradient"/>
    <linearGradient id="linear-gradient-6" x1="307.12" y1="79.33" x2="360" y2="79.33" xlink:href="#linear-gradient"/>
  </defs>
  <rect class="cls-6" x="0" width="1020" height="220"/>
  <g>
    <text class="cls-9" transform="translate(381 136.64) scale(1.03 1)"><tspan class="cls-8" x="0" y="0">C</tspan><tspan x="53.86" y="0">elmouse</tspan></text>
    <g>
      <path class="cls-1" d="M330.35,108.77c0,2.69-2.57,4.86-5.75,4.86h-17.25c-3.18,0-5.75-2.18-5.75-4.86s2.57-4.86,5.75-4.86h17.25c3.18,0,5.75,2.18,5.75,4.86Z"/>
      <path class="cls-4" d="M328.52,60l-19.46,19.42h-.24c-15.93.13-28.81,12.99-28.94,28.89,0,.08,0,.16,0,.24,0,1.85.17,3.65.51,5.41,1.15,6.14,4.24,11.6,8.6,15.73.55.52,1.12,1.02,1.71,1.5,2.6,2.11,5.58,3.78,8.82,4.9,2.77.97,4.9,3.53,5.48,6.7.03.14.05.28.07.42.01.1.03.19.03.28.04.35.06.71.06,1.07v10.68c0,.58-.05,1.14-.15,1.69-.2-.02-.41-.04-.6-.05-.16-.02-.31-.03-.47-.05-.35-.04-.71-.08-1.06-.12-.2-.02-.41-.05-.61-.08-.19-.03-.38-.05-.57-.08-.66-.1-1.33-.22-1.98-.34-.15-.03-.3-.06-.45-.09-2.77-.57-5.46-1.37-8.03-2.38-.23-.09-.45-.18-.67-.27-.01,0-.03-.01-.04-.02-.31-.13-.62-.26-.92-.39-.01,0-.03,0-.04-.02-.21-.09-.41-.18-.62-.28-.13-.06-.25-.11-.37-.17-.02,0-.04-.02-.05-.02-.28-.13-.56-.27-.84-.4-.08-.04-.15-.07-.23-.11-.28-.14-.55-.28-.83-.42-.32-.17-.64-.34-.95-.51-.27-.15-.54-.3-.81-.46-.09-.05-.18-.1-.26-.15-.25-.15-.5-.3-.75-.45-.02,0-.04-.02-.05-.03-.3-.18-.61-.37-.9-.56-.3-.19-.6-.39-.9-.59-.04-.03-.08-.05-.12-.08-.22-.15-.44-.3-.66-.46-.1-.06-.2-.14-.3-.21-.23-.16-.45-.33-.68-.49-.29-.21-.58-.43-.86-.65-.27-.2-.53-.41-.79-.62-.02-.01-.04-.03-.06-.05-.28-.22-.55-.45-.82-.68-.46-.39-.92-.79-1.38-1.2-.42-.38-.83-.76-1.23-1.16l-.02-.02c-.27-.27-.54-.53-.81-.81-.02-.02-.05-.05-.07-.07-.28-.28-.55-.58-.83-.87-.03-.03-.05-.06-.08-.08-.26-.28-.53-.58-.78-.87-.25-.28-.49-.56-.72-.84-.25-.29-.5-.59-.74-.89-.08-.1-.16-.2-.24-.3,0,0,0,0-.01-.02-.22-.28-.43-.56-.65-.84-.25-.33-.49-.66-.73-.99,0-.01-.02-.02-.03-.04-.23-.32-.45-.64-.67-.96,0,0,0,0,0-.01-.23-.34-.46-.68-.68-1.03-.2-.31-.39-.62-.58-.93-.2-.33-.4-.67-.6-1.01-.09-.15-.17-.3-.26-.45-.15-.27-.3-.53-.44-.8-.1-.18-.19-.36-.29-.55-.19-.36-.38-.73-.56-1.1-.09-.18-.18-.37-.27-.56-.08-.17-.17-.35-.25-.53-.08-.17-.16-.35-.24-.53-.32-.72-.63-1.45-.91-2.18-.14-.37-.28-.73-.41-1.11-.09-.27-.19-.53-.28-.8-.09-.27-.18-.54-.27-.81-.07-.23-.15-.47-.22-.7-.18-.58-.34-1.17-.49-1.75-.06-.25-.13-.5-.19-.74-.07-.31-.15-.62-.22-.93-.05-.2-.09-.39-.13-.6-.08-.39-.16-.77-.23-1.17-.05-.26-.09-.52-.14-.78-.04-.23-.07-.46-.11-.69-.1-.66-.19-1.32-.26-1.98-.03-.26-.06-.52-.08-.79-.02-.26-.05-.52-.07-.79,0-.05,0-.1,0-.16-.02-.27-.04-.53-.06-.8v-5.76s0-.03,0-.04c.02-.27.03-.54.06-.81,0-.02,0-.05,0-.07.02-.31.05-.61.08-.92.03-.26.05-.51.08-.77.03-.23.06-.46.08-.69.02-.19.05-.38.07-.57.03-.23.06-.47.1-.7.05-.3.09-.6.15-.9.05-.28.1-.57.15-.84,0-.02,0-.03,0-.05.06-.3.12-.59.18-.89.06-.28.12-.56.18-.84,0-.01,0-.03,0-.04.06-.28.13-.55.2-.83,0-.03,0-.05.02-.07.06-.22.11-.43.17-.65.04-.14.08-.28.12-.42.05-.17.1-.35.15-.52.1-.36.21-.72.32-1.08.07-.24.16-.49.24-.73.09-.27.18-.54.28-.82.1-.3.21-.6.32-.89.08-.21.16-.42.24-.62.24-.61.49-1.21.75-1.8.11-.25.22-.49.33-.73.13-.29.27-.59.41-.87.13-.26.25-.52.39-.78.11-.22.22-.43.33-.65.11-.22.23-.45.36-.67.09-.17.19-.34.28-.51.16-.29.32-.57.49-.85.34-.58.69-1.14,1.05-1.7.1-.15.19-.3.29-.45.21-.33.43-.65.66-.97.11-.16.22-.32.34-.48.27-.38.55-.76.83-1.13.19-.25.38-.5.57-.73.12-.16.24-.31.36-.46.12-.15.24-.3.37-.45.25-.3.5-.6.75-.89.02-.02.04-.04.06-.06.24-.27.48-.54.72-.81.13-.14.25-.28.38-.41.3-.32.6-.63.9-.94.11-.11.22-.23.33-.34.28-.28.55-.55.83-.81.13-.12.26-.24.39-.37.59-.55,1.19-1.08,1.81-1.6.14-.12.28-.24.42-.35.43-.36.88-.71,1.33-1.06.48-.37.96-.73,1.46-1.07.16-.11.32-.23.48-.34.35-.24.7-.48,1.06-.72.3-.19.59-.38.89-.57,1.02-.63,2.06-1.23,3.13-1.79.2-.1.4-.21.6-.31.2-.1.41-.2.61-.3.19-.09.39-.19.58-.28.21-.1.42-.2.64-.3.2-.09.41-.18.62-.28.2-.09.41-.18.61-.27,0,0,0,0,0,0,.21-.09.42-.17.63-.26.21-.09.42-.17.63-.25,1.48-.58,3-1.08,4.55-1.51.22-.06.44-.12.66-.18.22-.06.45-.11.67-.17.22-.06.45-.11.67-.16,3.15-.73,6.42-1.16,9.78-1.25.05,0,.11,0,.16,0,.21,0,.42,0,.63-.01.18,0,.36,0,.54,0h19.46Z"/>
      <path class="cls-5" d="M326.27,130.4v26.7s8.11,0,8.11,0c3.35,0,6.22-2.23,7.46-5.4.42-1.07.65-2.26.65-3.5v-17.86c-.03-4.87-3.62-8.81-8.06-8.84h-.05c-4.48,0-8.11,3.98-8.11,8.9Z"/>
      <path class="cls-7" d="M308.76,137.52v19.58s8.11,0,8.11,0c4.48,0,8.11-3.98,8.11-8.9v-10.68c0-.36-.02-.72-.06-1.07,0-.1-.02-.19-.03-.28-.02-.14-.04-.28-.07-.42-.75-4.06-4.02-7.12-7.95-7.12-4.48,0-8.11,3.98-8.11,8.9Z"/>
      <path class="cls-3" d="M343.78,137.52v19.58s8.11,0,8.11,0c4.48,0,8.11-3.98,8.11-8.9v-10.68c0-.36-.02-.72-.06-1.07,0-.1-.02-.19-.03-.28-.02-.14-.04-.28-.07-.42-.75-4.06-4.02-7.12-7.95-7.12-4.48,0-8.11,3.98-8.11,8.9Z"/>
      <path class="cls-2" d="M360,69.71c0,5.36-4.36,9.71-9.73,9.71h-10.15l-16.92,16.89c-3.83,3.3-9.62,3.13-13.24-.5-3.79-3.8-3.78-9.95.03-13.73l22.2-22.08h18.09c5.37,0,9.73,4.35,9.73,9.71Z"/>
    </g>
  </g>
</svg>